<?xml version="1.0" encoding="UTF-8"?><svg id="_レイヤー_2" xmlns="http://www.w3.org/2000/svg" width="512" height="512" viewBox="0 0 512 512"><defs><style>.cls-1{fill:#7c7471;}.cls-2{fill:#fff;}.cls-3{fill:#f7f4f0;}</style></defs><rect class="cls-3" width="512" height="512"/><rect class="cls-1" x="50" y="50" width="412" height="412" rx="38.66667" ry="38.66667" transform="translate(512) rotate(90)"/><path class="cls-2" d="M384.66667,325.6338h-118.92363v-23.21104h88.83392v-111.75899h-88.83392v-21.20592h109.18059v-19.77272h-109.18059v-25.79012h-22.06516v25.79012h-107.74672v19.77272h107.74672v21.20592h-86.25484v111.75899h86.25484v23.21104h-116.34455v19.77339h116.34455v42.6978h22.06516v-42.6978h118.92363v-19.77339ZM333.08507,284.3692h-67.34203v-29.51576h67.34203v29.51576ZM333.08507,208.71732v29.22912h-67.34203v-29.22912h67.34203ZM178.05568,208.71732h65.6222v29.22912h-65.6222v-29.22912ZM178.05568,284.3692v-29.51576h65.6222v29.51576h-65.6222Z"/></svg>