<?xml version="1.0" encoding="UTF-8"?>
<svg id="_レイヤー_1" data-name="レイヤー 1" xmlns="http://www.w3.org/2000/svg" viewBox="0 0 31 31">
  <defs>
    <style>
      .cls-1 {
        fill: #fff;
      }
    </style>
  </defs>
  <path class="cls-1" d="M9.41,1.1c-1.6.08-2.69.33-3.64.7-.99.38-1.82.9-2.65,1.73-.83.84-1.34,1.67-1.73,2.66-.37.96-.62,2.05-.69,3.64-.07,1.6-.09,2.11-.08,6.18,0,4.07.03,4.58.1,6.18.08,1.6.33,2.69.7,3.64.38.99.9,1.82,1.73,2.65.83.83,1.67,1.34,2.66,1.72.95.37,2.05.62,3.64.69,1.6.07,2.11.09,6.18.08,4.07,0,4.58-.03,6.18-.1,1.6-.08,2.69-.33,3.64-.7.99-.39,1.82-.9,2.65-1.74.83-.83,1.34-1.67,1.72-2.66.37-.95.62-2.05.69-3.64.07-1.6.09-2.11.08-6.18,0-4.07-.03-4.58-.1-6.18-.08-1.6-.33-2.69-.7-3.64-.39-.99-.9-1.82-1.73-2.65-.83-.83-1.67-1.34-2.66-1.72-.95-.37-2.05-.62-3.64-.69-1.6-.07-2.11-.09-6.18-.08-4.07,0-4.58.03-6.18.1M9.58,28.22c-1.46-.06-2.26-.31-2.79-.51-.7-.27-1.2-.6-1.73-1.12-.53-.52-.85-1.02-1.13-1.72-.21-.53-.45-1.32-.52-2.78-.07-1.58-.09-2.06-.1-6.06,0-4,0-4.48.08-6.06.06-1.46.31-2.26.51-2.79.27-.7.6-1.2,1.12-1.73.52-.53,1.02-.85,1.72-1.13.53-.21,1.32-.45,2.78-.52,1.58-.07,2.06-.09,6.06-.1,4.01,0,4.48,0,6.06.08,1.46.06,2.26.31,2.78.51.7.27,1.2.59,1.73,1.12.53.52.85,1.02,1.13,1.72.21.53.45,1.32.52,2.78.08,1.58.09,2.06.1,6.06,0,4.01,0,4.48-.08,6.06-.06,1.46-.31,2.26-.51,2.79-.27.7-.6,1.2-1.12,1.73-.52.52-1.02.85-1.72,1.13-.53.21-1.32.45-2.78.52-1.58.07-2.06.09-6.06.1-4,0-4.48,0-6.06-.08M21.81,7.98c0,.99.81,1.8,1.8,1.8.99,0,1.8-.81,1.8-1.8,0-.99-.81-1.8-1.8-1.8-.99,0-1.8.81-1.8,1.8M7.92,16.01c0,4.25,3.46,7.69,7.72,7.69,4.25,0,7.7-3.46,7.69-7.72,0-4.25-3.46-7.7-7.72-7.69-4.25,0-7.69,3.46-7.69,7.72M10.62,16.01c0-2.76,2.23-5,4.99-5.01,2.76,0,5,2.23,5.01,4.99,0,2.76-2.23,5-4.99,5.01-2.76,0-5-2.23-5.01-4.99"/>
</svg>