<?xml version="1.0" encoding="UTF-8"?>
<svg id="_レイヤー_1" data-name="レイヤー 1" xmlns="http://www.w3.org/2000/svg" viewBox="0 0 174.52 28.75">
  <defs>
    <style>
      .cls-1 {
        fill: #3f3f3f;
      }

      .cls-2 {
        fill: none;
        stroke: #3f3f3f;
        stroke-miterlimit: 10;
      }
    </style>
  </defs>
  <path class="cls-2" d="M170.63.49h-39.61l-8.24,8.24V.49H3.51C1.8.49.4,1.89.4,3.6v21.56c0,1.71,1.4,3.1,3.1,3.1h167.12c1.71,0,3.1-1.4,3.1-3.1V3.6c0-1.71-1.4-3.1-3.1-3.1Z"/>
  <path class="cls-1" d="M14.38,21.27h-1.58v-4.55h-3.77v.75h-1.59v-6.74h5.36v-2.99l1.68.12c.06,0,.28.01.28.22,0,.13-.22.18-.38.21v2.45h5.38v6.72h-1.58v-.74h-3.8v4.55ZM12.8,12.15h-3.77v3.1h3.77v-3.1ZM14.38,15.25h3.8v-3.1h-3.8v3.1Z"/>
  <path class="cls-1" d="M35.07,10.4v1.5h-5.87v2.54h3.95v6.81h-1.68v-.91h-6.28v.91h-1.68v-6.81h4.01v-2.54h-5.95v-1.5h5.95v-2.67l1.67.06c.15,0,.41.01.41.21,0,.15-.13.22-.4.32v2.08h5.87ZM25.2,18.9h6.28v-3.07h-6.28v3.07Z"/>
  <path class="cls-1" d="M49.17,8.98v1.25h-5.36v.96h4.2v5.29h-4.2v1.02h6.03v1.3h-6.03v2.55h-1.55v-2.55h-5.97v-1.3h5.97v-1.02h-4.19v-5.29h4.19v-.96h-5.39v-1.25h5.39v-1.3l1.56.09c.24.01.38.09.38.22,0,.21-.28.25-.4.27v.72h5.36ZM42.26,13.29v-.9h-2.64v.9h2.64ZM39.62,14.35v.91h2.64v-.91h-2.64ZM46.46,13.29v-.9h-2.65v.9h2.65ZM43.81,14.35v.91h2.65v-.91h-2.65Z"/>
  <path class="cls-1" d="M53.51,17.59c.12.04.37.13.37.27,0,.21-.29.21-.35.21-.43,1.36-.96,2.24-1.47,2.95-.4-.35-.81-.59-1.31-.75.8-1.09,1.16-1.65,1.62-3.04l1.15.37ZM57.01,8.17h7.5v1.34h-6.07v2.43h4.86l.6.47c-.46,3.21-1.24,4.64-1.86,5.62.44.52,1.27,1.37,2.67,2.23-.68.57-.75.63-1.15,1.11-1.27-.81-2.3-1.93-2.45-2.11-1.09,1.21-2.12,1.84-2.61,2.15-.44-.57-.53-.68-1.18-1.12,1.13-.49,2.12-1.22,2.93-2.17-.93-1.41-1.5-3.07-1.83-4.7-.01,1.87-.15,5.22-2.25,7.83-.53-.37-.91-.53-1.33-.62.28-.35.59-.75.97-1.47-.21.12-.53.34-.72.47-.34-.43-.9-1.47-1.05-1.87l.9-.59h-3.35v-8.99h4.47v8.99h-.97c.37.75.68,1.21.94,1.55.6-1.34.96-2.64.96-5.59v-4.95ZM54.85,10.81v-1.37h-1.96v1.37h1.96ZM52.89,11.89v1.44h1.96v-1.44h-1.96ZM52.89,14.42v1.5h1.96v-1.5h-1.96ZM59.84,13.29c.15.88.44,2.23,1.33,3.58.29-.55.93-1.81,1.16-3.58h-2.49Z"/>
  <path class="cls-1" d="M79.22,9.17v1.28h-5.94v1.02h4.42v1.24h-10.36v-1.24h4.35v-1.02h-5.88v-1.28h5.88v-1.4l1.62.07c.09,0,.29.01.29.18,0,.12-.13.21-.32.28v.87h5.94ZM71.91,15.45c.09.01.25.06.25.19,0,.19-.22.24-.41.27-.22,1.43-.65,4.36-4.82,5.53-.27-.52-.78-1.08-1.05-1.33,3.85-.9,4.27-3.1,4.32-4.97l1.71.31ZM78.78,13.66v2.77h-1.58v-1.53h-9.34v1.58h-1.59v-2.82h12.51ZM75.07,20.98c-.72,0-1.84-.01-1.84-1.68v-3.99l1.56.04c.13,0,.32.01.32.21,0,.15-.19.22-.32.27v2.98c0,.49.03.78.6.78h1.5c.68,0,.84-.34,1.05-1.86.75.57,1.13.63,1.41.68-.25,1.92-.77,2.58-2.15,2.58h-2.14Z"/>
  <path class="cls-1" d="M84.19,14.55c0,.74-.62,1.33-1.33,1.33s-1.33-.59-1.33-1.33.62-1.33,1.33-1.33,1.33.57,1.33,1.33Z"/>
  <path class="cls-1" d="M93.07,13.26h-1.86c.68.56,1.31.88,1.74,1.11-.38.35-.56.62-.72.96-.74-.56-1.13-.94-1.64-1.47v1.4h-1.24v-1.4c-.72.88-1.22,1.31-2.2,1.95-.19-.21-.37-.4-1.02-.83.63-.32,1.55-.83,2.45-1.71h-1.68v-2.87h2.45v-.68h-2.92v-1.02h2.92v-.94l1.24.09c.13.01.31.01.31.18,0,.12-.12.16-.31.24v.44h2.86v1.02h-2.86v.68h2.48v1.05c.47-.57,1.33-1.8,1.86-3.71l1.27.38c.12.03.25.07.25.21,0,.16-.22.19-.41.22-.18.52-.19.57-.27.78h4.05v1.22h-1.13c-.22.84-.59,1.77-1.39,2.68,1.21.96,2.28,1.28,2.83,1.43-.32.29-.68.72-.93,1.19-1.58-.63-2.61-1.55-2.83-1.75-1,.81-2.03,1.24-2.52,1.44-.21-.49-.49-.85-.84-1.19,1.05-.31,1.75-.63,2.49-1.18-.37-.46-.65-.93-.91-1.47-.27.41-.35.53-.49.72-.41-.4-.88-.63-1.03-.69v1.55ZM99.94,19.62v1.19h-13.49v-1.19h2.81v-2.33l1.42.13c.13.01.31.03.31.21,0,.13-.15.21-.27.27v1.72h1.75v-2.83h-4.73v-1.18h10.86v1.18h-4.64v.75h3.67v1.11h-3.67v.97h5.97ZM89.36,11.24h-1.28v1.16h1.28v-1.16ZM90.6,12.4h1.31v-1.16h-1.31v1.16ZM95.33,10.53c.32.9.81,1.5,1.08,1.81.62-.72.8-1.25.94-1.81h-2.02Z"/>
  <path class="cls-1" d="M104.11,21.27h-1.47v-7.97c-.43.57-.74.91-1.02,1.25-.31-.57-.69-.91-1-1.15,1.08-1.06,2.49-2.84,3.48-5.75l1.33.5c.09.03.22.1.22.21,0,.13-.07.15-.35.21-.47,1.21-1.21,2.46-1.3,2.62.31.13.44.19.44.32,0,.15-.22.21-.32.24v9.52ZM105.51,12.82h-.69v-1.25h2.81v-1.24h-2v-1.27h2v-1.25l1.44.06c.15,0,.34.04.34.19,0,.09-.06.15-.12.18-.07.04-.21.12-.27.15v.68h1.78v-1.25l1.41.06c.13,0,.37.03.37.19,0,.07-.06.15-.13.18-.07.03-.19.07-.24.1v.72h2v1.27h-2v1.24h2.37v1.25h-7.75c0,3.01,0,3.33-.07,4.1-.22,2.28-.87,3.43-1.31,4.14-.35-.34-.8-.65-1.27-.83.85-1.16,1.31-2.48,1.31-6.09v-1.33ZM111.33,18.9v2.02h-1.27v-2.02h-1.33v2.42h-1.28v-7.65h6.6v6.23c0,1.41-1.33,1.41-1.81,1.41-.04-.34-.31-.96-.55-1.36.28.07.57.09.65.09.4,0,.41-.16.41-.47v-.68h-1.43ZM110.06,15.82v-1.02h-1.33v1.02h1.33ZM110.06,17.87v-1.02h-1.33v1.02h1.33ZM109.03,10.32v1.24h1.78v-1.24h-1.78ZM112.76,15.82v-1.02h-1.43v1.02h1.43ZM111.33,16.85v1.02h1.43v-1.02h-1.43Z"/>
  <path class="cls-1" d="M121.16,20.44c2.93-.61,3.12-2.8,3.12-3.37,0-1.47-1.08-2.76-2.81-2.77-.11,1.13-.32,2.75-1.08,4.49-.53,1.21-1.04,1.83-1.6,1.83-.74,0-1.93-1.18-1.93-2.84,0-2.06,1.85-4.4,4.55-4.4,2.07,0,3.89,1.39,3.89,3.68,0,1.28-.56,2.27-1.15,2.91-.78.84-1.72,1.17-2.32,1.38-.28-.46-.47-.69-.67-.9ZM117.83,17.71c0,.98.52,1.71.9,1.71s.66-.75.91-1.39c.46-1.19.71-2.3.75-3.57-1.55.39-2.56,1.99-2.56,3.24Z"/>
  <path class="cls-1" d="M137.23,10.25c.47,0,.74-.12,1-.22l.85.78c-.24.37-.29.5-.47.9-1.24,2.84-2.05,4.7-4.02,6.72-1.83,1.87-3.64,2.64-4.38,2.95-.37-.46-.59-.65-1.21-1.13,4.52-1.84,6.56-4.78,7.83-8.59h-4.6c-1,1.49-2.05,2.71-3.66,4.11-.6-.6-.65-.66-1.18-1.06,2.18-1.71,4.05-4.11,5.04-6.76l1.44.65c.07.03.21.09.21.22,0,.15-.22.19-.35.19-.15.31-.24.49-.65,1.25h4.14ZM136.58,7.48c.35.32.97.97,1.36,1.44-.19.12-.59.35-.88.62-.63-.81-1.03-1.18-1.31-1.42l.84-.65ZM138.81,7.32c.47.43,1.09,1.16,1.36,1.52-.25.15-.31.19-.88.62-.1-.16-.66-.97-1.28-1.5l.81-.63Z"/>
  <path class="cls-1" d="M150.64,12.18c.65,0,.99-.06,1.25-.13l1,.69c-.19.31-.9,1.77-1.05,2.06-1.84,3.63-3.55,5.1-7.28,6.44-.38-.55-.55-.72-1.08-1.27,2.81-.8,5.56-2.14,7.15-6.37h-9.77v-1.43h9.77ZM151.13,8.67v1.4h-8.47v-1.4h8.47Z"/>
  <path class="cls-1" d="M154.53,10.46v-1.44h7.44c.24,0,.77-.03,1-.1l.84.83c-.25.31-.4.59-.56.96-.63,1.52-1.05,2.46-1.99,3.94,1.25.9,3.42,2.73,4.85,4.54-.62.62-.69.68-1.19,1.28-.81-1.15-2.08-2.86-4.48-4.64-2.18,2.74-4.69,4.2-6.19,4.83-.32-.62-.52-.9-1.02-1.34,2.33-.84,4.07-2.11,5.72-4.07,1.43-1.71,2.05-3.2,2.58-4.78h-7Z"/>
</svg>