<svg id="svgLogo" xmlns="http://www.w3.org/2000/svg" width="236" height="36" viewBox="0 0 236 36">
  <g>
    <path class="logo__item changeTarget" d="m51.96073,20.92929v13.45508h-2.79102V1.34823h11.25391c3.43359,0,6.14502.87744,8.13428,2.63232,1.98877,1.75488,2.98389,4.16699,2.98389,7.23779,0,3.10107-.95703,5.49463-2.87012,7.18115-1.91406,1.68701-4.68555,2.52979-8.31592,2.52979h-8.39502Zm0-2.35938h8.46289c2.70752,0,4.77246-.64404,6.19434-1.93164s2.13281-3.08301,2.13281-5.38574c0-2.2876-.70703-4.10889-2.12158-5.46533-1.41455-1.35547-3.42236-2.04883-6.02393-2.0791h-8.64453v14.86182Z"/>
    <path class="logo__item changeTarget" d="m90.1243,20.6119h-9.59766v13.77246h-2.81348V1.34823h10.73193c3.52441,0,6.27734.854,8.25928,2.56104,1.98145,1.70752,2.97217,4.09473,2.97217,7.16162,0,2.11523-.62061,3.98096-1.86035,5.59766-1.24072,1.6167-2.9043,2.73438-4.9917,3.35449l8.25879,14.06641v.29492h-2.97217l-7.98682-13.77246Zm-9.59766-2.35986h8.55371c2.34473,0,4.22803-.6665,5.6499-2,1.42139-1.33301,2.13281-3.06006,2.13281-5.18115,0-2.33301-.74121-4.14355-2.22363-5.43115s-3.56201-1.93164-6.23975-1.93164h-7.87305v14.54395Z"/>
    <path class="logo__item changeTarget" d="m110.68045,34.38436h-2.79102V1.34823h2.79102v33.03613Z"/>
    <path class="logo__item changeTarget" d="m198.60861,17.63925l11.27734,16.74512h-3.3584l-9.62012-14.43066-1.67969-2.31445-10.95898-16.29102h3.33594l9.30273,13.97705,1.70117,2.31396Z"/>
    <polygon class="logo__item changeTarget" points="199.51486 15.87551 209.26737 1.34823 205.93241 1.34823 197.83109 13.52017 198.29514 14.21737 199.51486 15.87551"/>
    <polygon class="logo__item changeTarget" points="193.75998 19.40286 183.65116 34.38436 186.96366 34.38436 195.4252 21.75186 194.96604 21.06308 193.75998 19.40286"/>
    <path class="logo__item changeTarget" d="m131.67404,17.63925l11.27734,16.74512h-3.3584l-9.62012-14.43066-1.67969-2.31445L117.3342,1.34823h3.33594l9.30273,13.97705,1.70117,2.31396Z"/>
    <polygon class="logo__item changeTarget" points="132.58029 15.87551 142.3328 1.34823 138.99784 1.34823 130.89652 13.52017 131.36057 14.21737 132.58029 15.87551"/>
    <polygon class="logo__item changeTarget" points="126.82541 19.40286 116.71659 34.38436 120.02909 34.38436 128.49063 21.75186 128.03147 21.06308 126.82541 19.40286"/>
    <path class="logo__item changeTarget" d="m166.2703,18.9327h-15.40625v15.45166h-2.79102V1.34823h20.46582v2.35986h-17.6748v12.86475h15.40625v2.35986Z"/>
    <path class="logo__item changeTarget" d="m177.61502,34.38436h-2.79102V1.34823h2.79102v33.03613Z"/>
    <path class="logo__item changeTarget" d="m233.24979,18.54696h-15.45117v13.47803h17.76562v2.35938h-20.55664V1.34823h20.44336v2.35986h-17.65234v12.479h15.45117v2.35986Z"/>
    <path class="logo__item changeTarget" d="m14.89889,3.22978v19.53939c-2.08071-.20358-3.71899-.42843-4.63915-.64074-.14554-.03358-.29211-.04987-.43725-.04987-.63227,0-1.23678.30928-1.60427.84622-.45184.66018-.45315,1.52977-.0033,2.19133,1.04535,1.53727,3.29034,2.74391,6.68397,3.59546v3.77128H2.21656V3.22978h12.68232m1.94421-1.94421H1.98004c-.93924,0-1.70768.76837-1.70768,1.70767v29.72614c0,.93916.76843,1.70767,1.70768,1.70767h14.86306v-7.27108c-1.89382-.37953-5.81294-1.35733-7.02045-3.1331,1.8045.41636,5.28214.73099,7.02045.8701V1.28557h0Z"/>
    <path class="logo__item changeTarget" d="m9.92939,10.68497c.57797,0,1.04818.47021,1.04818,1.04818s-.47021,1.04818-1.04818,1.04818-1.04818-.47021-1.04818-1.04818.47021-1.04818,1.04818-1.04818m0-1.94421c-1.65265,0-2.99238,1.33973-2.99238,2.99238s1.33974,2.99238,2.99238,2.99238,2.99238-1.33974,2.99238-2.99238-1.33974-2.99238-2.99238-2.99238h0Z"/>
    <path class="logo__item changeTarget" d="m34.07815,3.22978v29.25306h-12.68233v-3.77127c3.39364-.85156,5.63864-2.05819,6.68398-3.59548.44985-.66156.44853-1.53113-.00331-2.19133-.36752-.53697-.97194-.84621-1.60426-.84621-.1451,0-.29176.0163-.43725.04987-.92017.21231-2.55845.43716-4.63916.64074V3.22978h12.68233m.23653-1.94421h-14.86307v23.60739c1.73832-.13911,5.21596-.45375,7.02046-.8701-1.20751,1.77577-5.12663,2.75357-7.02046,3.1331v7.27108h14.86307c.93923,0,1.70768-.7685,1.70768-1.70767V2.99324c0-.9393-.76844-1.70767-1.70768-1.70767h0Z"/>
    <path class="logo__item changeTarget" d="m26.36533,10.68497c.57797,0,1.04818.47021,1.04818,1.04818s-.47021,1.04818-1.04818,1.04818-1.04818-.47021-1.04818-1.04818.47021-1.04818,1.04818-1.04818m0-1.94421c-1.65266,0-2.99238,1.33973-2.99238,2.99238s1.33973,2.99238,2.99238,2.99238,2.99238-1.33974,2.99238-2.99238-1.33974-2.99238-2.99238-2.99238h0Z"/>
  </g>
</svg>
