<?xml version="1.0" encoding="utf-8"?>
<!-- Generator: Adobe Illustrator 26.0.1, SVG Export Plug-In . SVG Version: 6.00 Build 0)  -->
<svg version="1.1" id="レイヤー_1" xmlns="http://www.w3.org/2000/svg" xmlns:xlink="http://www.w3.org/1999/xlink" x="0px"
	 y="0px" viewBox="0 0 243 40" style="enable-background:new 0 0 243 40;" xml:space="preserve">
<rect x="48.6" y="0" width="22.9" height="8.6"/>
<path d="M60,11.4c-7.9,0-14.3,6.4-14.3,14.3C45.7,33.6,52.1,40,60,40c7.9,0,14.3-6.4,14.3-14.3c0,0,0,0,0,0
	C74.3,17.8,67.9,11.4,60,11.4C60,11.4,60,11.4,60,11.4z M60,31.4c-3.2,0-5.7-2.6-5.7-5.7S56.8,20,60,20c3.2,0,5.7,2.6,5.7,5.7
	c0,0,0,0,0,0C65.7,28.9,63.2,31.4,60,31.4C60,31.4,60,31.4,60,31.4z"/>
<polygon points="31.4,0 20,16.3 8.6,0 8.6,0 0,0 0,40 8.6,40 8.6,14.9 20,31.3 31.4,14.9 31.4,40 40,40 40,0 "/>
<polygon points="111.4,0 77.1,0 77.1,8.6 90,8.6 90,40 98.6,40 98.6,8.6 111.4,8.6 "/>
<path d="M139.3,40h9.3l-17-40h-8.9l-17,40h9.3l3.6-8.6h17L139.3,40z M121.7,24.3l5.4-12.8l5.4,12.8H121.7z"/>
<path d="M172.8,17.2v-4.8H166V8.8h20.5v3.7h-9.6v4.8h11.2V21h-11.2v4c0,1.8,0.5,2.3,2.5,2.4c0.5,0,1.6,0.1,2.7,0.1
	c1.8,0,3.7-0.1,5.1-0.2v3.9c-1.4,0-3.3,0.1-5.2,0.1c-1.1,0-2.3,0-3,0c-4.5-0.1-6.2-1.7-6.2-6V21h-8.2v-3.8H172.8z"/>
<path d="M213.8,17.3v4.2h-17.7v-4.2H213.8z"/>
<path d="M230,16.6c1.9,1.1,3.7,2.3,5.4,3.5c1.2-2,2.1-4.3,2.6-6.6h-7.4c-2,3.2-4.4,6-7.3,8.4l-3.1-2.6c4-2.9,7.8-8.4,9.4-12.7
	l3.9,1.2c-0.3,0.7-0.6,1.3-0.9,2h7.6l2.8,1.6c-2.1,9.5-7.4,17.5-15.7,20.7l-2.8-3.4c3.3-1.1,6.2-3,8.5-5.5c-1.8-1.4-3.6-2.7-5.5-3.8
	L230,16.6z"/>
</svg>
