<svg xmlns:xlink="http://www.w3.org/1999/xlink" xmlns="http://www.w3.org/2000/svg" id="レイヤー_1" data-name="レイヤー 1" viewBox="0 0 749.78 279.16" width="749.78"  height="279.16" ><defs><style>.cls-1{fill:#ff6010;}</style></defs><title>アートボード 1</title><path class="cls-1" d="M75.42,37.5c-5.88,0-5.88-5-5.88-5.28,0-1.07.86-6,.86-6.73a2.06,2.06,0,0,0-2.23-2.27c-2.36,0-4.5,1.84-5.71,3.22-.64.69-2.92,3.82-5.4,10.72l-5.28-1.5c10.34-20,11.41-22.09,13.34-26.21,1.46-3.13,2.06-4.5,2.62-5.88l4.85,2.57c.26.13,1,.51,1,.94a.46.46,0,0,1-.34.39,7.75,7.75,0,0,0-.94.26c-.64.21-3.65,5.36-6.3,11.5a12.56,12.56,0,0,1,4.29-.9c3.77,0,5.36,2.53,5.36,5.19,0,1-1,5.71-1,6.78,0,1.5.69,2,1.76,2,3,0,6-4.2,7.59-6.52l2.79,4.12C85.24,32.35,81.86,37.5,75.42,37.5Z"/><path class="cls-1" d="M119.9,13.31A104.62,104.62,0,0,1,112,31.71l-4.59-2a73.54,73.54,0,0,0,7.33-15.61c-2,.26-3.17.39-5.19.51l-.64-4.46a57,57,0,0,0,7.29-.56,41,41,0,0,0,1.54-7.08l4.67,1c.21,0,1,.26,1,.73s-.73.69-1,.94c0,0-.86,2.79-1,3.35,2.53-.64,3.82-1.07,4.93-1.46v4.8C124.87,12.32,123.54,12.66,119.9,13.31Zm15.18,22.82a23.62,23.62,0,0,0-4.25-2.83c-.39,3.43-1.67,5.23-7.29,5.23-2.75,0-5.19-.43-7-2A4.85,4.85,0,0,1,115,32.87c0-2.32,1.67-6.09,7.59-6.09a21.6,21.6,0,0,1,3.35.26c-.09-1-.6-5.36-.6-6.26a6.48,6.48,0,0,1,1.84-4.37l4.46,2.4A3.93,3.93,0,0,0,130,22.23a42.38,42.38,0,0,0,.56,6,39.46,39.46,0,0,1,7.38,3.9Zm-12.7-5.45c-2.23,0-3.26,1.2-3.26,2.06s1.2,1.93,3.56,1.93c3.47,0,3.43-1.8,3.43-3.35A14.39,14.39,0,0,0,122.39,30.68ZM137,17.81a30.38,30.38,0,0,0-9.39-3.9l1.93-3.69a21.19,21.19,0,0,1,9.57,3.95Z"/><path class="cls-1" d="M189.38,13.61a51.89,51.89,0,0,1-7.87,15,42.94,42.94,0,0,1-12,10.47l-4.82-3.31a38.53,38.53,0,0,0,13.83-11.53,35.23,35.23,0,0,0,5.83-11.62H173.08a61.12,61.12,0,0,1-8.4,9.85l-4.37-3a38.48,38.48,0,0,0,12.2-17l4.55,1.72c.27.09,1.15.49,1.15.93s-.49.44-1.1.62c-.26.66-.8,1.55-1.24,2.39h9.9a4.45,4.45,0,0,0,1.94-.84l3.58,4.2A4.61,4.61,0,0,0,189.38,13.61Z"/><path class="cls-1" d="M223.17,7.87c-.31.26-.31.35-.31.57,0,8.26,0,8.93-.22,10.87-1.06,9.15-6.32,13.48-9.55,16l-4.9-3.58c4.24-2.48,9.46-6.23,9.46-17.24a64.75,64.75,0,0,0-.49-8.35l5.35.35c.8,0,1.28.18,1.28.66C223.79,7.38,223.7,7.42,223.17,7.87Zm8.18,27.53-3.76-2.92V5.66l5.13.62c.4,0,1.24.13,1.24.57,0,.18-.09.31-.49.66,0,0-.53.49-.53.53V27.35c3.8-2.08,8.84-7,11.67-11.31l3,4.46C243.27,26.34,236.64,32.44,231.34,35.4Z"/><path class="cls-1" d="M296.77,14.1c-1.1,1.06-7.38,7.38-12.86,13.21a39.69,39.69,0,0,1,3.71,4.9l-4.46,3.58A44.58,44.58,0,0,0,272,22.54l3.45-3.45a56.83,56.83,0,0,1,4.86,4.33c3.45-3.45,6-6.05,9-9.28H264.42v-5h28.64a4.59,4.59,0,0,0,2.08-1l3.67,4.29C297.92,13.12,297.25,13.65,296.77,14.1Z"/><path class="cls-1" d="M333.35,38.23c-5.06,0-7.29-.6-9.44-1.72a8.17,8.17,0,0,1-4.37-7.33c0-5.36,4.16-8.11,8.88-10.89a13.54,13.54,0,0,1-2.53-3.86c-.6-1.42-.81-2.66-2.19-10.85l5.49-.81c0,2.4.09,6.95,1.24,10.17a5.22,5.22,0,0,0,2.49,2.92l10.77-5.06L345.27,16a64.53,64.53,0,0,0-15.87,6.78c-1.93,1.2-5.1,3.39-5.1,6.26,0,3.09,3.39,4.59,7.89,4.59a55.59,55.59,0,0,0,13.25-1.93V37.2A77,77,0,0,1,333.35,38.23Z"/><path class="cls-1" d="M368.8,26.77a25.22,25.22,0,0,1,9.52,9.31l-4.46,3.56a35.27,35.27,0,0,0-8.28-9.52Z"/><path class="cls-1" d="M417.84,37.84c-2.49,0-6.39-.17-9.09-1.54A8,8,0,0,1,404.37,29c0-5.53,4.42-8.24,8.79-10.81a9.63,9.63,0,0,1-2.62-3.56c-.6-1.46-1.8-8.71-2.19-10.81L413.76,3c0,2.36,0,7.64,1.2,10.25a5.57,5.57,0,0,0,2.4,2.75c2.53-1.24,5.75-2.83,10.59-5L429.55,16a59.07,59.07,0,0,0-15.61,6.69c-2.79,1.8-4.93,3.69-4.93,6.26,0,3.47,3.39,4.5,7.85,4.5a52,52,0,0,0,12.83-1.89v5.28A82,82,0,0,1,417.84,37.84Zm8.89-29.5a33,33,0,0,0-3.27-4.26L426,2.15a28.34,28.34,0,0,1,3.32,4.26Zm5.1-2.27a32.23,32.23,0,0,0-3.27-4.3L431.14,0a30.71,30.71,0,0,1,3.31,4.26Z"/><path class="cls-1" d="M16.6,37.84c-2.49,0-6.39-.17-9.09-1.54A8,8,0,0,1,3.13,29c0-5.53,4.42-8.24,8.79-10.81a9.63,9.63,0,0,1-2.62-3.56c-.6-1.46-1.8-8.71-2.19-10.81L12.53,3c0,2.36,0,7.64,1.2,10.25A5.57,5.57,0,0,0,16.13,16c2.53-1.24,5.75-2.83,10.59-5L28.31,16A59.07,59.07,0,0,0,12.7,22.66c-2.79,1.8-4.93,3.69-4.93,6.26,0,3.47,3.39,4.5,7.85,4.5a52,52,0,0,0,12.83-1.89v5.28A82,82,0,0,1,16.6,37.84Zm8.89-29.5a33,33,0,0,0-3.27-4.26l2.54-1.94a28.34,28.34,0,0,1,3.32,4.26Zm5.1-2.27a32.23,32.23,0,0,0-3.27-4.3L29.9,0a30.71,30.71,0,0,1,3.31,4.26Z"/><path class="cls-1" d="M476.66,37.5c-5.88,0-5.88-5-5.88-5.28,0-1.07.86-6,.86-6.73a2.06,2.06,0,0,0-2.23-2.27c-2.36,0-4.5,1.84-5.71,3.22-.64.69-2.92,3.82-5.4,10.72L453,35.65c10.34-20,11.41-22.09,13.34-26.21,1.46-3.13,2.06-4.5,2.62-5.88l4.85,2.57c.26.13,1,.51,1,.94a.46.46,0,0,1-.34.39,7.75,7.75,0,0,0-.94.26c-.64.21-3.65,5.36-6.3,11.5a12.56,12.56,0,0,1,4.29-.9c3.77,0,5.36,2.53,5.36,5.19,0,1-1,5.71-1,6.78,0,1.5.69,2,1.76,2,3,0,6-4.2,7.59-6.52l2.79,4.12C486.48,32.35,483.09,37.5,476.66,37.5Z"/><path class="cls-1" d="M521.14,13.31a104.62,104.62,0,0,1-7.94,18.4l-4.59-2a73.54,73.54,0,0,0,7.33-15.61c-2,.26-3.17.39-5.19.51l-.64-4.46a57,57,0,0,0,7.29-.56,41,41,0,0,0,1.54-7.08l4.67,1c.21,0,1,.26,1,.73s-.73.69-1,.94c0,0-.86,2.79-1,3.35,2.53-.64,3.82-1.07,4.93-1.46v4.8C526.11,12.32,524.78,12.66,521.14,13.31Zm15.18,22.82a23.62,23.62,0,0,0-4.25-2.83c-.39,3.43-1.67,5.23-7.29,5.23-2.75,0-5.19-.43-7-2a4.85,4.85,0,0,1-1.59-3.65c0-2.32,1.67-6.09,7.59-6.09a21.6,21.6,0,0,1,3.35.26c-.09-1-.6-5.36-.6-6.26a6.48,6.48,0,0,1,1.84-4.37l4.46,2.4a3.93,3.93,0,0,0-1.63,3.43,42.38,42.38,0,0,0,.56,6,39.46,39.46,0,0,1,7.38,3.9Zm-12.7-5.45c-2.23,0-3.26,1.2-3.26,2.06s1.2,1.93,3.56,1.93c3.47,0,3.43-1.8,3.43-3.35A14.39,14.39,0,0,0,523.62,30.68Zm14.63-12.87a30.38,30.38,0,0,0-9.39-3.9l1.93-3.69a21.19,21.19,0,0,1,9.57,3.95Z"/><path class="cls-1" d="M632.42,17V39.3h-4.63v-36h16.08V17Zm6.82-10.29h-6.82V8.59h6.82Zm0,4.85h-6.82v2.1h6.82Zm2,22.69v1.5h-4.42V19.4h17.24V34.2Zm8.41-11.45h-8.41v2.32h8.41Zm0,5.66h-8.41v2.45h8.41Zm8.84,11h-2.06l-2.32-4.72a21.91,21.91,0,0,0,2.49.17c.77,0,1.54-.17,1.54-1.67V17H646.49V3.27h16.3V34.32C662.79,38.1,661.63,39.38,658.5,39.38Zm-.34-32.73h-7V8.59h7Zm0,4.85h-7v2.1h7Z"/><path class="cls-1" d="M709.52,23.47c0,1.67.09,7,.09,8.45h-5c.13-2.45.17-4.55.21-6.43-1.63.82-6.09,3-6.09,6,0,2.79,3.3,3.35,6.43,3.35a49.61,49.61,0,0,0,10.94-1.37v4.85a71,71,0,0,1-10.21.64c-2.4,0-7.38,0-10.08-2.87a5.86,5.86,0,0,1-1.63-4.2c0-5.32,3.95-7.33,10.38-10.64-.26-1.29-.77-2.83-3.26-2.83-4.2,0-6.78,3.9-9.14,7.76L688,23.6a57,57,0,0,0,8.45-11.8c-2.44.13-3.77.17-5.58.17l-.51-4.46a60.23,60.23,0,0,0,8.19.17A33.26,33.26,0,0,0,700.68,2l5.36.94c.13,0,.86.13.86.43s-.17.39-.43.47c-.09,0-.94.43-1,.43s-1.12,2.45-1.33,2.92A36.24,36.24,0,0,0,712.56,5l-.3,4.8A90.27,90.27,0,0,1,702,11.42c-1.37,2.53-1.72,3.13-2.45,4.25a8.31,8.31,0,0,1,3.69-.9c3,0,4.85,1.5,5.83,4.33,5-2.36,5.58-2.62,7.59-3.52l1.46,4.89C714.75,21.54,712.69,22.27,709.52,23.47Z"/><path class="cls-1" d="M749.78,33a6.63,6.63,0,1,1-6.61-6.61A6.67,6.67,0,0,1,749.78,33Zm-10.6,0a4,4,0,1,0,4-3.95A4,4,0,0,0,739.18,33Z"/><path class="cls-1" d="M584,27.84,581.28,31a27.41,27.41,0,0,1,4.19,4l2.43-2.86.34-.4A30,30,0,0,0,584,27.84Z"/><path class="cls-1" d="M565.72,34h4.33V30.89h3.82v1.42h4.38V5.71H565.72Zm4.33-24h3.82v6.09h-3.82Zm0,10.38h3.82v6.31h-3.82Z"/><path class="cls-1" d="M602.61,18.5v-4H593V11h7.85V7H593V4.08c0-.21.09-.21.51-.56a.85.85,0,0,0,.43-.6c0-.34-.26-.47-.56-.47l-5.28-.26V7H580.9v4h7.16v3.47H579.7v4H593v4.12H579.79v4H593V33c0,1.33-.81,1.5-1.76,1.5a26.32,26.32,0,0,1-2.83-.17l2.1,5.1c5.45,0,7.29-.81,7.29-4.2V26.65h4.59v-4h-4.59V18.5Z"/><rect class="cls-1" x="147.35" y="166.2" width="77.44" height="35.94" rx="6.64" ry="6.64"/><rect class="cls-1" x="672.34" y="166.2" width="77.44" height="35.94" rx="6.64" ry="6.64"/><path class="cls-1" d="M494.67,142H472c-4.55,0-6.64,2.09-6.64,6.64v60.91c0,21.44-11,33.66-33.66,33.66H395.49c-4.55,0-6.64,2.09-6.64,6.64v22.66c0,4.55,2.09,6.64,6.64,6.64h40.76a65.13,65.13,0,0,0,65.06-65.06V148.66C501.31,144.11,499.22,142,494.67,142Z"/><path class="cls-1" d="M650.35,124.32H636.88V98.17c0-4.55-2.09-6.64-6.64-6.64H607.59c-4.55,0-6.64,2.09-6.64,6.64v26.15H574.26V98.17c0-4.55-2.09-6.64-6.64-6.64H545c-4.55,0-6.64,2.09-6.64,6.64v26.15H524.85c-4.55,0-6.64,2.09-6.64,6.64v22.66c0,4.55,2.09,6.64,6.64,6.64h13.47v25.61c0,4.55,2.09,6.64,6.64,6.64h22.66c4.55,0,6.64-2.09,6.64-6.64V160.25h26.69v49.88c0,24.78-14.4,33.09-32.22,33.09-4.55,0-6.64,2.09-6.64,6.64v22.66c0,4.55,2.09,6.64,6.64,6.64h3.09a65.13,65.13,0,0,0,65.06-65.06V160.25h13.47c4.55,0,6.64-2.09,6.64-6.64V131C657,126.41,654.9,124.32,650.35,124.32Z"/><path class="cls-1" d="M121.09,124.32h-56V98.17c0-4.55-2.09-6.64-6.64-6.64H35.76c-4.55,0-6.64,2.09-6.64,6.64v26.15H6.64C2.09,124.32,0,126.41,0,131v22.66c0,4.55,2.09,6.64,6.64,6.64H29.12V214.1A29.17,29.17,0,0,1,6.64,242.46h0C1.92,243.57,0,245,0,249.86v22.66c0,3.72,1.43,6.83,6.64,6.3A65.15,65.15,0,0,0,65.06,214.1V160.25H91.79V233a10.2,10.2,0,0,1-10.18,10.18h-6.1c-4.55,0-6.64,2.09-6.64,6.64v22.66c0,4.55,1.81,6.64,9.69,6.64h3.81c24.48,0,45.37-20.69,45.37-46.12V131C127.73,126.41,125.64,124.32,121.09,124.32Z"/><path class="cls-1" d="M364.6,124.32H296.8V98.17c0-4.55-2.09-6.64-6.64-6.64H267.51c-4.55,0-6.64,2.09-6.64,6.64v26.15H247.4c-4.55,0-6.64,2.09-6.64,6.64v22.66c0,4.55,2.09,6.64,6.64,6.64h13.47V214.1a65.13,65.13,0,0,0,65.06,65.06h18.85c4.55,0,6.64-2.09,6.64-6.64V249.86c0-4.55-2.09-6.64-6.64-6.64H325.93A29.15,29.15,0,0,1,296.8,214.1V160.25h38.5a10.16,10.16,0,0,1-3.54,7.72h0c-3.15,2.71-6.64,2.81-6.64,9.1v22.66c0,3.69,1.81,6.86,6.64,6.16h0a46.19,46.19,0,0,0,39.48-45.64V131C371.24,126.41,369.16,124.32,364.6,124.32Z"/><path class="cls-1" d="M441.85,104.06a101.14,101.14,0,0,0-46.37,0c-5.14,1.39-6.64,4.21-6.63,8.9v22.69c0,4.85,2.92,5.38,6.63,4.38a89,89,0,0,1,23.17-2.69h0A89,89,0,0,1,441.85,140c3.71,1,6.63.47,6.63-4.38V113C448.49,108.27,447,105.45,441.85,104.06Z"/></svg>