<svg xmlns="http://www.w3.org/2000/svg" width="490.005" height="106.004" viewBox="0 0 490.005 106.004"><g transform="translate(0 0)"><g transform="translate(-65.379 -367.54)"><path d="M774.3-948.057a18.543,18.543,0,0,1,3.02,5.233,21.555,21.555,0,0,1,1.362,6.147l2.637-1a21.208,21.208,0,0,0-4.785-11.444Zm-3.871,5.722a15.726,15.726,0,0,1-1.127,3.85c-.255.6-.554.914-.872.914-.682,0-1.361-1.361-1.723-3.573a39.8,39.8,0,0,1-.4-5.7,24.717,24.717,0,0,1,.17-3.233h-2.913a10.355,10.355,0,0,1,.084,1.362c.085,5.892.468,8.976,1.339,11.1.851,2.042,2,3.084,3.425,3.084,1.808,0,3.042-1.722,4.148-5.87A10.5,10.5,0,0,1,770.424-942.335Zm59.723-6.807c0,5.956-.49,8.7-2.021,11.146a8.749,8.749,0,0,1-2.191,2.446,7.579,7.579,0,0,1,2.149,2.063,13.554,13.554,0,0,0,2.935-3.934c1.106-2.191,1.574-4.595,1.723-8.743a45.077,45.077,0,0,1,.213-4.765l-2.893-.149A10.59,10.59,0,0,1,830.147-949.141Zm-21.258-.043-4.659.064c-.4,0-.745.021-1.02.043a5.011,5.011,0,0,0,.34-.681l.277-.553a4.293,4.293,0,0,1,.277-.6,4.284,4.284,0,0,1,.362-.66l-2.915-.574a7.948,7.948,0,0,1-1.084,2.808,16.366,16.366,0,0,1-5.51,6.168,5.659,5.659,0,0,1,2.064,1.829A20.811,20.811,0,0,0,802-946.78l6.4-.106a16.845,16.845,0,0,1-6.212,8.976,19.151,19.151,0,0,1-4.659,2.511,6.562,6.562,0,0,1,1.808,2.233,21.49,21.49,0,0,0,7.572-5.4,22.079,22.079,0,0,0,4.361-8.211,3.983,3.983,0,0,1,.532-1.277l-1.362-1.34A3.769,3.769,0,0,1,808.889-949.184Zm-64.125,9.359a5.472,5.472,0,0,1-5.147,3.637,3.366,3.366,0,0,1-2.85-1.106c-.425-.638-.553-1.4-.553-3.424,0-1.511.128-5.829.213-7.806a19.566,19.566,0,0,1,.255-2.871l-2.978-.043a10.452,10.452,0,0,1,.086,1.447c0,.3,0,.745-.021,1.383-.128,5.339-.171,7.466-.171,8.572,0,2.85.617,4.488,2.085,5.467a6.939,6.939,0,0,0,3.722.935,8.051,8.051,0,0,0,6.381-2.7c1.042-1.17,1.68-2.552,2.531-5.424a9.2,9.2,0,0,1-2.573-1.638A14.25,14.25,0,0,1,744.764-939.825Zm-41.485-11.23-1.935-1.064a10.991,10.991,0,0,1-3.361,4.127,8.808,8.808,0,0,1,1.3,2A15.625,15.625,0,0,0,703.279-951.055Zm205.755,1.382a12.278,12.278,0,0,0-2.213-3l-1.425.745a15.644,15.644,0,0,1,2.169,3.084ZM709.15-943.186a20.3,20.3,0,0,0,2.211-4.233H715.7a11.535,11.535,0,0,1-1.744,3.914,9.166,9.166,0,0,1,1.85,1.319,16.392,16.392,0,0,0,2-5.042,9.522,9.522,0,0,1,.362-1.191l-1-1.149a8.949,8.949,0,0,1-1.85.106h-3.254c.064-.213.148-.532.319-1.149.084-.3.213-.808.426-1.552l-2.383-.4a12.761,12.761,0,0,1-.532,2.68,16.671,16.671,0,0,1-2.51,5.212A8.712,8.712,0,0,1,709.15-943.186Zm6.424,5.466a13.275,13.275,0,0,1-2.3-7.593,5.707,5.707,0,0,1,.043-.872h-2.3a8.266,8.266,0,0,1,.064.915,17.7,17.7,0,0,1-1.042,6.147,8.95,8.95,0,0,1-2.766,3.765v-5.594c.191.169.319.276.7.595a8.949,8.949,0,0,1,1.319-2.127,11.943,11.943,0,0,1-4.532-5.148h-2.191a13.093,13.093,0,0,1-2.51,4.148,14.787,14.787,0,0,1-2.233,1.894,10.63,10.63,0,0,1,1.063,2.339c.6-.511.957-.808,1.17-1v4.871a15.551,15.551,0,0,1-.149,2.318h2.362v-1.106h3.467c.552,0,.637,0,.978.022a8.23,8.23,0,0,1,1.149,1.51,10.874,10.874,0,0,0,3-3.233,10.415,10.415,0,0,0,1.488-4.19,12.03,12.03,0,0,0,2.17,4.765,14.021,14.021,0,0,0,2.552,2.637c.574-1.042.936-1.638,1.362-2.3A10.238,10.238,0,0,1,715.574-937.719Zm-10.465,1.511H702.28v-3.807h2.829Zm.787-5.849h-4.148a12.118,12.118,0,0,0,2.02-3.382,13.993,13.993,0,0,0,2.34,3.382Zm137.778-1.319a10.391,10.391,0,0,1-2.084,3.893,8.533,8.533,0,0,1-3.254,2.425l.106-12.1a11.547,11.547,0,0,1,.148-2.021l-2.892-.043a9.318,9.318,0,0,1,.085,1.4v.638l-.106,12a9.578,9.578,0,0,1-.191,2.255l1.362,1.446a9.329,9.329,0,0,1,.914-.383,14.056,14.056,0,0,0,4.531-2.552,13.2,13.2,0,0,0,3.382-4.956A8.919,8.919,0,0,1,843.674-943.377ZM707.6-946.759a15.581,15.581,0,0,1,1.254-1.978,10.955,10.955,0,0,1-2.914-3.382l-1.85,1.064A14.833,14.833,0,0,0,707.6-946.759Zm215.8,7.445-1.808,1.681a22.927,22.927,0,0,1,4.616,4.849l1.978-1.851A24.856,24.856,0,0,0,923.4-939.314Zm-49.81-10.529-11.827.021a15.515,15.515,0,0,1-2.765-.149v2.7a23.049,23.049,0,0,1,2.722-.106h10.146c.447,0,.766-.021.979-.043a.5.5,0,0,0-.042.106,1.412,1.412,0,0,0-.129.192,27.975,27.975,0,0,1-2.595,3.467,25.951,25.951,0,0,1-2.786,2.68c-.149-.128-.149-.128-1.319-1.318-.871-.851-1.51-1.425-2.637-2.362l-2.085,1.511a34.274,34.274,0,0,1,4.254,4.105,35.076,35.076,0,0,1,4.106,5.36l2.233-1.786c-1.106-1.511-1.915-2.531-2.808-3.552a32.911,32.911,0,0,0,6.87-8.062,6.631,6.631,0,0,1,.936-1.254l-1.488-1.681A5.571,5.571,0,0,1,873.589-949.843Zm212.823.745c-2.468,0-3.616.17-8.467,1.213a15.271,15.271,0,0,1-2.488.425l.616,3.02a7.783,7.783,0,0,1,1.7-.595,30.311,30.311,0,0,1,8.381-1.511,5.538,5.538,0,0,1,2.744.574,3.112,3.112,0,0,1,1.617,2.765,4.688,4.688,0,0,1-.234,1.511,5.894,5.894,0,0,1-3.212,3.148c-1.807.787-3.595,1.106-7,1.254a9.223,9.223,0,0,1,1.085,2.745c3.893-.426,5.551-.808,7.487-1.766,3.02-1.467,4.722-3.914,4.722-6.807C1093.367-946.738,1090.623-949.1,1086.412-949.1ZM1120-947.823a13.782,13.782,0,0,1,2.447,3.637,19.1,19.1,0,0,1,1.7,4.829l2.426-1.234a20.641,20.641,0,0,0-4.382-8.295Zm-4.339.362c-.4,0-.7.021-1.318.064.063-.277.063-.319.149-.786.3-1.6.3-1.6.361-2.042.065-.34.085-.447.128-.723a5.02,5.02,0,0,1,.17-.659l-2.765-.3v.4a32.736,32.736,0,0,1-.553,4.3c-1.169.17-3.744.426-4.531.426l.255,2.51a38.374,38.374,0,0,1,3.807-.681,36.077,36.077,0,0,1-2.063,6.02,23.219,23.219,0,0,1-2.213,4l2.468,1.361c.106-.213.106-.233.17-.362l.319-.637a45.755,45.755,0,0,0,2.552-5.978,45.013,45.013,0,0,0,1.3-4.615c.49-.043.809-.064,1.234-.064,1.68,0,2.169.574,2.169,2.531a18.949,18.949,0,0,1-.552,4.85c-.319,1.042-.66,1.446-1.277,1.446a8.794,8.794,0,0,1-3.105-.83,7.993,7.993,0,0,1,.213,1.808c0,.213-.021.511-.043.936a10.314,10.314,0,0,0,3.276.616,2.691,2.691,0,0,0,2.361-.957c1.021-1.17,1.638-4.084,1.638-7.743,0-1.936-.278-2.956-1-3.765A4.118,4.118,0,0,0,1115.666-947.461Zm58.574,7.487a3.6,3.6,0,0,0-3.6,3.595,3.609,3.609,0,0,0,3.6,3.616,3.608,3.608,0,0,0,3.594-3.616A3.59,3.59,0,0,0,1174.24-939.974Zm0,5.551a1.947,1.947,0,0,1-1.936-1.956,1.943,1.943,0,0,1,1.936-1.935,1.943,1.943,0,0,1,1.935,1.935A1.947,1.947,0,0,1,1174.24-934.422Zm-23.491-9.784a10.383,10.383,0,0,0-4.467.979l-.043-.043a8.338,8.338,0,0,0,.872-.553c.426-.277,1.957-1.425,2.34-1.744.723-.617,2.276-2,3.339-2.978a4.561,4.561,0,0,1,1.105-.872l-1.318-1.871a3.156,3.156,0,0,1-1.319.276c-2.064.149-4.659.255-6.466.255a19.229,19.229,0,0,1-2.51-.128l.106,2.553a7.192,7.192,0,0,1,1.021-.106c3.85-.17,5.211-.256,6.019-.363l.022.022-.383.383a71.145,71.145,0,0,1-6.361,5.53,19.12,19.12,0,0,1-3,2l1.446,2.3a13.1,13.1,0,0,1,8.764-3.573c2.573,0,4.211,1.085,4.211,2.744,0,1.511-.766,2.425-2.531,3.084a5.707,5.707,0,0,0-.979-1.914,4.577,4.577,0,0,0-3.679-1.745c-2.128,0-3.659,1.277-3.659,3.042a3.037,3.037,0,0,0,1.276,2.447,7.2,7.2,0,0,0,4.126.978,10.532,10.532,0,0,0,5.148-1.212,5.2,5.2,0,0,0,2.893-4.7C1156.727-942.335,1154.386-944.207,1150.749-944.207Zm-2.552,8.594c-1.573,0-2.531-.489-2.531-1.34,0-.595.489-.979,1.254-.979,1.191,0,2,.766,2.382,2.234A5.747,5.747,0,0,1,1148.2-935.613Zm-88.764-6.211a35.432,35.432,0,0,0,.383-4.51,6.88,6.88,0,0,1,.128-1.425l-2.68-.106a6.381,6.381,0,0,1,.084,1.127,23.109,23.109,0,0,1-.213,3.935,17.327,17.327,0,0,0-4.7-1.34c.191-.659,1.489-4.573,1.595-4.828a3.223,3.223,0,0,1,.447-.894l-1.68-1.447a1.622,1.622,0,0,1-.851.256c-.787.106-2.68.191-3.957.191a12.607,12.607,0,0,1-2.148-.106l.106,2.488c.426-.063.808-.084,1.68-.127,2.085-.086,2.595-.106,3.68-.192-.531,1.957-.786,2.766-1.34,4.447a7.564,7.564,0,0,0-4.019,1.02,5.352,5.352,0,0,0-2.638,4.659c0,2.318,1.447,4.041,3.4,4.041a3.361,3.361,0,0,0,2.915-2.02,28.362,28.362,0,0,0,2.105-5.232,16.24,16.24,0,0,1,4.786,1.467,8.662,8.662,0,0,1-1.894,3.148,9.989,9.989,0,0,1-3.3,2.234,7.728,7.728,0,0,1,1.935,1.914,12.327,12.327,0,0,0,3.213-2.4,10.058,10.058,0,0,0,2.318-3.744,21.713,21.713,0,0,1,2.935,1.978l.958-2.808a7.584,7.584,0,0,1-.979-.51C1061.049-940.995,1060.113-941.483,1059.433-941.824Zm-11.508,3.254c-.489.957-.808,1.34-1.213,1.34-.574,0-1.042-.7-1.042-1.574a2.987,2.987,0,0,1,.808-2.042,4.205,4.205,0,0,1,2.829-1.277A27.8,27.8,0,0,1,1047.925-938.57Zm-26.788,2.084c-3.424,0-4.87-.66-4.87-2.212,0-1.532,1.553-2.893,4.658-4.042a51.876,51.876,0,0,1,7.02-2.042l-.915-2.681a5.819,5.819,0,0,1-.808.319c-4.127,1.362-4.127,1.362-5.51,1.872a35.792,35.792,0,0,1-1.4-6.658l-2.765.447a9.069,9.069,0,0,1,.34,1.382,54.163,54.163,0,0,0,1.425,5.764,13.148,13.148,0,0,0-2.893,1.83,5,5,0,0,0-1.893,3.808,4.027,4.027,0,0,0,1.85,3.552c1.362.809,3.212,1.169,6.168,1.169a44.938,44.938,0,0,0,4.978-.319,13.17,13.17,0,0,1,1.723-.148l-.234-2.915A23.289,23.289,0,0,1,1021.137-936.485ZM904.1-946.142a19.9,19.9,0,0,1,2.915,6.913l2.425-1.213a19.8,19.8,0,0,0-3.191-6.764Zm-5.573-1.17c-.383,0-.681.021-1.319.043.065-.277.065-.277.128-.638.212-1.148.362-2.02.468-2.637l.042-.277a4.768,4.768,0,0,1,.171-.659l-2.766-.278v.384a29.916,29.916,0,0,1-.553,4.3,43.675,43.675,0,0,1-4.531.447l.256,2.51a8.672,8.672,0,0,1,.872-.213l1.936-.319c.68-.127.68-.127,1-.17a31.274,31.274,0,0,1-4.276,10.019l2.467,1.361a45.651,45.651,0,0,0,4.339-11.571c.489-.043.831-.065,1.277-.065,1.638,0,2.128.574,2.128,2.532a18.89,18.89,0,0,1-.553,4.849c-.319,1.043-.66,1.447-1.277,1.447a8.922,8.922,0,0,1-3.105-.85,8.028,8.028,0,0,1,.213,1.808c0,.213-.021.532-.043.936a9.886,9.886,0,0,0,3.276.637,2.7,2.7,0,0,0,2.361-.957c1.021-1.17,1.638-4.084,1.638-7.743,0-1.935-.277-2.956-1-3.765A4.119,4.119,0,0,0,898.526-947.312Zm7.976-.978a13.757,13.757,0,0,0-2.233-3.128l-1.488.745a14.351,14.351,0,0,1,2.233,3.169Zm56.148,2.063c-.128.021-1.106.234-2.935.617a19.135,19.135,0,0,1-.83-1.745c.659-.085,3.02-.553,4.446-.894.51-.106.51-.106.723-.148l-.213-2.255a35.7,35.7,0,0,1-5.743,1.277,12.407,12.407,0,0,1-.871-2.574l-2.659.362c.02.042.319.7.85,1.935.17.383.17.383.234.553a37.778,37.778,0,0,1-4.381.234,17.85,17.85,0,0,1-2.042-.085l.106,2.254c.447-.021.553-.043,1.447-.043a51.252,51.252,0,0,0,5.7-.3c.17.383.234.511.446.957.17.4.256.532.383.786a41.7,41.7,0,0,1-6.019.405,12.481,12.481,0,0,1-2.19-.086l.085,2.319c.361-.043.511-.043.872-.064a61.025,61.025,0,0,0,8.231-.575,12.788,12.788,0,0,0,1.638,2.382,14.656,14.656,0,0,0-3.68-.446,9.483,9.483,0,0,0-4.956,1.063,3.554,3.554,0,0,0-1.786,2.956,3.423,3.423,0,0,0,1.637,2.914,9.718,9.718,0,0,0,5.19,1.043,20.477,20.477,0,0,0,5.445-.723,10.865,10.865,0,0,1,1.383-.319l-.383-2.616a16.516,16.516,0,0,1-6.551,1.383,8.288,8.288,0,0,1-3.042-.468,1.4,1.4,0,0,1-.915-1.234,1.535,1.535,0,0,1,.915-1.3,8.2,8.2,0,0,1,3.573-.6,11.433,11.433,0,0,1,4.892.872l1.872-1.34a21.231,21.231,0,0,1-2.85-3.893c.254-.064.254-.064.786-.17.511-.106,1.213-.255,2.085-.467.489-.129.935-.213,1.34-.277l-.213-2.318A10.747,10.747,0,0,1,962.649-946.227Zm27.49.809a30.08,30.08,0,0,0-6.573.893,11.327,11.327,0,0,1-2.212.4l.531,2.553a13.46,13.46,0,0,1,2.468-.723,23.831,23.831,0,0,1,5.594-.83c2.254,0,3.489.894,3.489,2.552a3.417,3.417,0,0,1-1.511,2.871,7.5,7.5,0,0,1-3.553,1.447,18.726,18.726,0,0,1-3.019.319h-.319a6.729,6.729,0,0,1,.915,2.425,20.863,20.863,0,0,0,4.616-.808c3.381-1.063,5.381-3.36,5.381-6.189a4.824,4.824,0,0,0-.787-2.745C994.2-944.717,992.563-945.419,990.139-945.419Z" transform="translate(-627.452 1320.212)"/><g transform="translate(-48.154 281.33)"><g transform="translate(113.533 118.214)"><path d="M374.539,129.012a7.564,7.564,0,1,1-9.013-5.75A7.559,7.559,0,0,1,374.539,129.012Z" transform="translate(-162.194 -119.176)" fill="#910000"/><path d="M398.848,124.152a7.566,7.566,0,1,1-9.016-5.761A7.572,7.572,0,0,1,398.848,124.152Z" transform="translate(-167.001 -118.214)" fill="#910000"/><path d="M305.413,130.026v9.685h16.125c-23.384,18.325-17.026,52.378,12.619,52.378,18.668,0,28.6-18.317,23.475-35.542,5.4,1.252,11.667,2.733,11.667,2.733l1.821-9.421-20.03-4.636a5.057,5.057,0,0,0-5.158,1.824c-1.219,1.568-1,3.25-.03,4.977,7.648,13.668,1.207,29.023-11.982,29.955-19.357,1.359-25.988-27.687,4.9-42.807a4.465,4.465,0,0,0,2.664-5.235,5.085,5.085,0,0,0-4.943-3.911Z" transform="translate(-151.48 -120.55)" fill="#910000"/><path d="M308.209,175.335" transform="translate(-152.033 -129.51)" fill="#910000"/><g transform="translate(0 4.558)"><path d="M144.5,151.908H128.146v-3.316H144.5Zm0,11.446H128.146v-4.246H144.5Zm9.647-4.246h16.475v4.246H154.151Zm0-10.517h16.475v3.316H154.151ZM181.2,175.455H154.151v-4.525h21.308a5.078,5.078,0,0,0,.542,0,3.8,3.8,0,0,0,3.848-3.771c0-.022-.006-.047-.006-.07l.014-.009V144.77h-.008A3.819,3.819,0,0,0,176,141.009h-21.85V137.07h26.824a3.91,3.91,0,0,0,3.848-3.966,3.987,3.987,0,0,0-3.848-4.056H154.151a4.834,4.834,0,1,0-9.647,0H117.859a3.979,3.979,0,0,0-3.84,4.056,3.9,3.9,0,0,0,3.84,3.966H144.5v3.939H122.669a3.815,3.815,0,0,0-3.848,3.783,3.771,3.771,0,0,0,.055.624v21.177a3.864,3.864,0,0,0-.055.627,3.752,3.752,0,0,0,3.848,3.71,3.98,3.98,0,0,0,.858,0H144.5v4.525H117.382a3.972,3.972,0,0,0,0,7.94H144.5v4.957a4.826,4.826,0,1,0,9.647,0V183.4H181.2a3.972,3.972,0,0,0,0-7.94" transform="translate(-113.533 -123.895)" fill="#910000"/><path d="M221.82,137.087a7.012,7.012,0,1,1-7.009-7.239,7.133,7.133,0,0,1,7.009,7.239" transform="translate(-132.176 -125.072)" fill="#910000"/><path d="M237.388,182.522a25.751,25.751,0,0,0,4.747-2.736,3.875,3.875,0,0,0,2.163-3.5,3.835,3.835,0,0,0-2.226-3.5h15.163a3.883,3.883,0,0,0,.874,6.821c.073.05.14.1.234.156a37.455,37.455,0,0,0,6.218,2.767Zm8.1-21.3h9.644v4.325h-9.644Zm29.029,21.358-1.936-.047h-1.771l.672-.957-.011-.011a3.913,3.913,0,0,0,.617-2.111,3.766,3.766,0,0,0-3.036-3.741c-.345-.117-.686-.237-1.027-.357-2.114-.765-4.2-1.612-6.26-2.578h9.323a3.616,3.616,0,0,0,0-7.231h-7.055v-4.325h6.1a3.009,3.009,0,0,0,0-6.014h-6.1V151.2h5.381c.126,0,.229.006.333,0a4.183,4.183,0,0,0,.75,0,4.022,4.022,0,0,0,4.181-4.045,4.248,4.248,0,0,0-4.181-4.313,4.142,4.142,0,0,0-3.58,2.109,2.045,2.045,0,0,1-1.345.4h-4.41a1.341,1.341,0,0,1-1.038-.384,1.481,1.481,0,0,1-.357-1.049v-2.377h12.114l.013-.033a2.762,2.762,0,0,0,2.7-2.806c0-.079-.014-.151-.014-.229v-8.453c0-.078.014-.15.014-.229a2.964,2.964,0,0,0-2.918-3.016H254.23a3.032,3.032,0,0,0,0,6.059h12.255v3.057H254.029a2.756,2.756,0,0,0-2.708,2.715H251.3v1.785c0,4.915.291,6.573.878,7.822a5.42,5.42,0,0,0,2.959,2.991v4.006h-9.644V151.2c-.006-.022-.01.025-.01,0a4.958,4.958,0,0,0,1.842-3.892,3.917,3.917,0,0,0-3.849-3.981,3.8,3.8,0,0,0-3.024,1.523,2.236,2.236,0,0,1-1.52.5h-4.144a1.321,1.321,0,0,1-1.471-1.434v-2.377H244.9l0-.03a2.769,2.769,0,0,0,2.709-2.809c0-.062-.009-.117-.014-.179V130.06a2.713,2.713,0,0,0,.025-.27,2.967,2.967,0,0,0-2.922-3.016H228.169a3.031,3.031,0,0,0,0,6.059h11.708v3.057H227.962a2.755,2.755,0,0,0-2.713,2.793l-.034.017v5.794q0,3.67,1.618,5.295c1.078,1.1,2.878,1.414,5.393,1.414h4.4v4.006h-6.235a3.009,3.009,0,0,0,0,6.014h6.235v4.325h-7.278a3.616,3.616,0,0,0,0,7.231h7.811a32.992,32.992,0,0,1-4.347,2.664,4,4,0,0,0-.659,7.089,10.386,10.386,0,0,1-6.451-2.271c-1.56-1.361-3.159-3.119-3.159-5.272v-18.15c0-.05.008-.106.008-.167a4.044,4.044,0,0,0-3.977-4.112c-.075,0-.139-.006-.211,0h-9.409a4.044,4.044,0,0,0-3.984,4.112,4.1,4.1,0,0,0,3.984,4.168h5.07v17.178c-1.617,1.15-3.173,2.148-4.667,3.016a4.587,4.587,0,0,0-2.825,4.277,4.533,4.533,0,0,0,4.457,4.611,4.262,4.262,0,0,0,2.388-.734.634.634,0,0,0,.42-.2q2.07-1.971,4.337-4.229c1.235,2.209,3.844,3.763,6.209,4.679a26.7,26.7,0,0,0,9.345,1.349h40.37a2.68,2.68,0,0,0,.429.028,4.117,4.117,0,0,0,.033-8.229" transform="translate(-131.616 -124.464)" fill="#910000"/></g></g><g transform="translate(349.848 136.82)"><path d="M440.188,152.417a5.391,5.391,0,1,1-6.422-4.12A5.419,5.419,0,0,1,440.188,152.417Z" transform="translate(-412.444 -142.743)"/><path d="M455.916,145.663a5.392,5.392,0,1,1-6.424-4.129A5.426,5.426,0,0,1,455.916,145.663Z" transform="translate(-415.628 -141.406)"/><path d="M417.414,171.193v24.145H408.1V146.453h9.31v15.483l31.106,6.659v9.257Z" transform="translate(-408.104 -142.404)"/><path d="M550.376,171.193v24.145h-9.311V146.453h9.311v15.483l31.1,6.659v9.257Z" transform="translate(-435.028 -142.404)"/><path d="M599.293,193.607v-8.5h33.043V159.015h-32.99V150.57H636.8a5.135,5.135,0,0,1,5.12,5.15v32.738a5.135,5.135,0,0,1-5.12,5.15Z" transform="translate(-446.82 -143.219)"/><path d="M713.734,187.467,703.3,162.96h-9.956l10.118,22.9H676.5L690,148.073h-9.741L666.8,186.009a9.548,9.548,0,0,0-.757,3.418,5.583,5.583,0,0,0,5.6,4.878h37.253A5.148,5.148,0,0,0,713.734,187.467Z" transform="translate(-460.333 -142.725)"/><g transform="translate(49.466 12.115)"><path d="M500.521,175.146l-4.558-18.638h-8.288l4.211,18.638Z" transform="translate(-473.684 -156.508)"/><path d="M505.161,156.98v.975c-.108,18.3-5.489,27.5-23.356,31.237v8.174c20.235-2.923,32.236-13.642,32.451-39.356V156.98Z" transform="translate(-472.495 -156.602)"/><path d="M483.01,175.24l-4.538-18.259h-8.341l4.248,18.259Z" transform="translate(-470.131 -156.602)"/></g></g></g></g></g></svg>